<?xml version="1.0" encoding="UTF-8"?> <svg xmlns="http://www.w3.org/2000/svg" width="13" height="15" viewBox="0 0 13 15" fill="none"><path d="M10.5356 14.396C9.72196 15.1856 8.82428 15.0625 7.96862 14.6902C7.05893 14.3104 6.22729 14.2864 5.26656 14.6902C4.07015 15.2066 3.43516 15.0565 2.71461 14.396C-1.35349 10.2078 -0.753035 3.82791 3.87049 3.58773C4.99185 3.64778 5.77695 4.2077 6.43745 4.25424C7.4192 4.05458 8.35892 3.48265 9.40972 3.55771C10.6722 3.65978 11.6164 4.15816 12.2469 5.05435C9.64991 6.61553 10.2654 10.0381 12.6507 10.9989C12.1733 12.2523 11.5609 13.4908 10.5341 14.4065L10.5356 14.396ZM6.34738 3.5427C6.22579 1.68128 7.73444 0.150114 9.46977 0C9.70845 2.14663 7.51828 3.75286 6.34738 3.5427Z" fill="#191919"></path></svg> 