<?xml version="1.0" encoding="UTF-8"?> <svg xmlns="http://www.w3.org/2000/svg" width="1988" height="873" viewBox="0 0 1988 873" fill="none"><mask id="mask0_4748_71695" style="mask-type:alpha" maskUnits="userSpaceOnUse" x="-1761" y="0" width="5266" height="873"><rect x="-1760.2" y="0.714844" width="5264.39" height="872" fill="url(#paint0_linear_4748_71695)"></rect></mask><g mask="url(#mask0_4748_71695)"><path d="M1316.5 1308.05C1350.06 1285.78 1327.6 1188.18 1295.89 1163.63C1277.21 1149.14 1261.03 1131.7 1247.97 1111.99C1216.09 1063.91 1204.61 1005.14 1216.05 948.585C1227.49 892.033 1260.92 842.328 1308.98 810.391C1332.79 794.575 1359.49 783.606 1387.54 778.111C1415.59 772.616 1444.45 772.704 1472.46 778.368C1500.47 784.032 1527.09 795.162 1550.8 811.122C1574.5 827.081 1594.83 847.557 1610.61 871.379C1624.05 891.58 1634 913.895 1640.05 937.394C1650.03 976.219 1729.82 1034.03 1763.22 1011.87L1971.49 873.688C1977.75 869.632 1982.56 863.695 1985.22 856.733C1987.89 849.77 1988.28 842.141 1986.33 834.945C1970 776.995 1944.71 721.959 1911.36 671.832C1869.37 608.542 1815.32 554.149 1752.29 511.761C1689.26 469.374 1618.49 439.822 1544.02 424.794C1469.56 409.766 1392.85 409.556 1318.3 424.178C1243.74 438.799 1172.79 467.964 1109.5 510.007C1046.22 551.987 991.833 606.02 949.44 669.02C907.048 732.019 877.484 802.749 862.438 877.168C847.392 951.587 847.159 1028.24 861.752 1102.74C876.346 1177.24 905.479 1248.13 947.488 1311.35C980.75 1361.52 1021.63 1406.2 1068.65 1443.78C1074.53 1448.37 1081.72 1450.99 1089.18 1451.24C1096.64 1451.49 1103.99 1449.36 1110.16 1445.17L1316.5 1308.05Z" fill="url(#paint1_linear_4748_71695)" fill-opacity="0.4"></path><path d="M1298.93 196.656C1266.79 196.647 1234.97 202.97 1205.28 215.264C1175.58 227.558 1148.6 245.583 1125.88 268.308C1103.15 291.033 1085.13 318.014 1072.83 347.707C1060.54 377.401 1054.21 409.226 1054.22 441.365C1054.22 473.502 1060.54 505.326 1072.84 535.018C1085.13 564.711 1103.16 591.689 1125.88 614.414C1148.61 637.139 1175.59 655.163 1205.28 667.459C1234.97 679.754 1266.8 686.08 1298.93 686.073C1331.07 686.073 1362.89 679.743 1392.57 667.445C1422.26 655.147 1449.24 637.122 1471.96 614.398C1494.68 591.674 1512.7 564.698 1525 535.009C1537.29 505.319 1543.62 473.499 1543.62 441.365C1543.62 409.229 1537.3 377.408 1525 347.717C1512.71 318.026 1494.69 291.048 1471.97 268.324C1449.24 245.6 1422.27 227.574 1392.58 215.278C1362.89 202.981 1331.07 196.653 1298.93 196.656V196.656ZM1298.93 533.389C1274.53 533.383 1251.12 523.686 1233.86 506.43C1216.6 489.174 1206.9 465.771 1206.88 441.365C1206.9 416.956 1216.6 393.55 1233.86 376.29C1251.12 359.031 1274.52 349.329 1298.93 349.316C1323.34 349.329 1346.74 359.031 1364 376.292C1381.25 393.552 1390.95 416.958 1390.96 441.365C1390.95 465.769 1381.25 489.172 1364 506.429C1346.74 523.685 1323.34 533.383 1298.93 533.389V533.389Z" fill="url(#paint2_linear_4748_71695)"></path><path d="M1515.12 942.156L1421.78 725.819C1420.71 723.465 1420.13 720.925 1420.05 718.344C1419.98 715.763 1420.42 713.193 1421.34 710.782C1422.27 708.372 1423.66 706.168 1425.44 704.3C1427.22 702.431 1429.36 700.934 1431.72 699.896C1469.51 681.077 1502.39 653.705 1527.75 619.956C1553.11 586.206 1570.25 547.009 1577.81 505.476C1578.73 500.447 1581.47 495.936 1585.52 492.812C1589.57 489.688 1594.63 488.171 1599.72 488.554L1835.01 509.977C1837.75 510.227 1840.4 511.025 1842.83 512.324C1845.25 513.624 1847.38 515.397 1849.1 517.539C1850.83 519.68 1852.1 522.147 1852.85 524.791C1853.6 527.435 1853.8 530.202 1853.46 532.929C1841 620.88 1807.36 704.486 1755.43 776.555C1703.5 848.624 1634.84 906.999 1555.35 946.656C1550.85 948.637 1546.35 951.157 1541.85 953.137C1536.85 955.202 1531.23 955.207 1526.22 953.15C1521.21 951.093 1517.22 947.142 1515.12 942.156V942.156Z" fill="url(#paint3_linear_4748_71695)" fill-opacity="0.4"></path><path d="M1156.9 689.06L1218.55 575.459C1219.92 573.061 1222.11 571.24 1224.72 570.333C1227.33 569.427 1230.18 569.496 1232.75 570.528C1255.86 580.957 1281.23 585.377 1306.5 583.375C1309.31 583.12 1312.11 583.936 1314.33 585.661C1316.56 587.386 1318.05 589.891 1318.51 592.671L1338.24 720.475C1338.45 721.931 1338.38 723.417 1338.01 724.844C1337.65 726.271 1337 727.61 1336.11 728.783C1335.22 729.955 1334.1 730.937 1332.82 731.67C1331.54 732.403 1330.13 732.872 1328.67 733.05C1271.53 739.581 1213.72 729.568 1162.1 704.2C1160.71 703.615 1159.45 702.742 1158.42 701.639C1157.39 700.535 1156.6 699.225 1156.11 697.796C1155.62 696.366 1155.43 694.849 1155.57 693.343C1155.71 691.838 1156.16 690.378 1156.9 689.06Z" fill="url(#paint4_linear_4748_71695)" fill-opacity="0.8"></path></g><defs><linearGradient id="paint0_linear_4748_71695" x1="871.999" y1="436.715" x2="875.715" y2="836.869" gradientUnits="userSpaceOnUse"><stop offset="0.40916" stop-color="white"></stop><stop offset="1" stop-color="white" stop-opacity="0"></stop></linearGradient><linearGradient id="paint1_linear_4748_71695" x1="1133.71" y1="634.822" x2="1480.55" y2="1053.63" gradientUnits="userSpaceOnUse"><stop stop-color="#BCA8F8"></stop><stop offset="1" stop-color="#28AFEA" stop-opacity="0.6"></stop></linearGradient><linearGradient id="paint2_linear_4748_71695" x1="1392.63" y1="329.86" x2="1235.04" y2="517.361" gradientUnits="userSpaceOnUse"><stop stop-color="#53468B"></stop><stop offset="1" stop-color="#AB8AD3"></stop></linearGradient><linearGradient id="paint3_linear_4748_71695" x1="-792832" y1="3.6445e+06" x2="-814245" y2="3.62433e+06" gradientUnits="userSpaceOnUse"><stop stop-color="#AF94DE"></stop><stop offset="1" stop-color="#66B7ED"></stop></linearGradient><linearGradient id="paint4_linear_4748_71695" x1="1243.94" y1="781.775" x2="1258.57" y2="424.378" gradientUnits="userSpaceOnUse"><stop stop-color="#AF94DE"></stop><stop offset="1" stop-color="#BCE4FF"></stop></linearGradient></defs></svg> 