<?xml version="1.0" encoding="UTF-8"?> <svg xmlns="http://www.w3.org/2000/svg" width="14" height="16" viewBox="0 0 14 16" fill="none"><path d="M11.9319 11.1562C12.0986 11.2292 12.2236 11.3307 12.3069 11.4609C12.3903 11.5859 12.4502 11.7344 12.4866 11.9062C12.5075 12.0104 12.5309 12.1068 12.5569 12.1953C12.583 12.2839 12.6142 12.3672 12.6507 12.4453C12.6872 12.5234 12.7288 12.6016 12.7757 12.6797C12.8278 12.7526 12.8903 12.8307 12.9632 12.9141C13.0309 12.987 13.0908 13.0833 13.1429 13.2031C13.195 13.3177 13.221 13.4245 13.221 13.5234C13.221 13.6432 13.1872 13.7448 13.1194 13.8281C13.0569 13.9115 12.9814 13.9844 12.8929 14.0469C12.7731 14.1302 12.6481 14.2057 12.5179 14.2734C12.3877 14.3359 12.2575 14.3984 12.1273 14.4609C11.9137 14.5651 11.7288 14.6745 11.5726 14.7891C11.4163 14.9036 11.2601 15.0495 11.1038 15.2266C11.0205 15.3203 10.9241 15.4141 10.8148 15.5078C10.7106 15.5964 10.596 15.6771 10.471 15.75C10.3512 15.8229 10.2262 15.8828 10.096 15.9297C9.9658 15.9714 9.83559 15.9922 9.70538 15.9922C9.4033 15.9922 9.1507 15.9401 8.94757 15.8359C8.74965 15.7266 8.58038 15.5365 8.43976 15.2656C8.39809 15.1875 8.35382 15.138 8.30695 15.1172C8.26528 15.0911 8.20017 15.0729 8.11163 15.0625C7.84601 15.0417 7.58038 15.0208 7.31476 15C7.05434 14.9792 6.79132 14.9688 6.5257 14.9688C6.30695 14.9688 6.08038 14.987 5.84601 15.0234C5.61684 15.0599 5.39288 15.1042 5.17413 15.1562C5.12726 15.1667 5.08038 15.2083 5.03351 15.2812C4.98663 15.349 4.92153 15.4245 4.8382 15.5078C4.75486 15.5859 4.64288 15.6589 4.50226 15.7266C4.36163 15.7891 4.17674 15.8203 3.94757 15.8203C3.7757 15.8203 3.5882 15.8021 3.38507 15.7656C3.18715 15.724 3.01267 15.6641 2.86163 15.5859C2.53872 15.4245 2.22101 15.3151 1.90851 15.2578C1.59601 15.1953 1.26528 15.1432 0.916321 15.1016C0.796529 15.0859 0.681946 15.0651 0.572571 15.0391C0.463196 15.0078 0.366842 14.9635 0.283508 14.9062C0.200175 14.849 0.132467 14.776 0.0803833 14.6875C0.0335083 14.5938 0.0100708 14.4766 0.0100708 14.3359C0.0100708 14.1745 0.0309041 14.0182 0.0725708 13.8672C0.119446 13.7161 0.142883 13.5573 0.142883 13.3906C0.142883 13.276 0.132467 13.1641 0.111633 13.0547C0.0960083 12.9401 0.0881958 12.8229 0.0881958 12.7031C0.0881958 12.4375 0.150696 12.2422 0.275696 12.1172C0.400696 11.9922 0.582987 11.8932 0.822571 11.8203C0.937154 11.7839 1.03611 11.7344 1.11945 11.6719C1.20799 11.6094 1.28611 11.5417 1.35382 11.4688C1.42674 11.3906 1.49445 11.3099 1.55695 11.2266C1.61945 11.138 1.68976 11.0495 1.76788 10.9609C1.78351 10.9401 1.79132 10.9167 1.79132 10.8906C1.79132 10.8281 1.78611 10.7682 1.7757 10.7109C1.77049 10.6484 1.76788 10.5859 1.76788 10.5234C1.76788 10.1693 1.82257 9.8125 1.93195 9.45312C2.04653 9.09375 2.18976 8.74219 2.36163 8.39844C2.53872 8.05469 2.73663 7.72396 2.95538 7.40625C3.17413 7.08854 3.39028 6.79427 3.60382 6.52344C3.9059 6.13802 4.13247 5.73698 4.28351 5.32031C4.43976 4.90365 4.51788 4.45052 4.51788 3.96094C4.51788 3.7526 4.50747 3.54688 4.48663 3.34375C4.4658 3.13542 4.45538 2.92708 4.45538 2.71875C4.45538 2.30208 4.50226 1.92708 4.59601 1.59375C4.68976 1.25521 4.83559 0.96875 5.03351 0.734375C5.23663 0.5 5.49445 0.320312 5.80695 0.195312C6.12465 0.0651042 6.50486 0 6.94757 0C7.47361 0 7.89288 0.106771 8.20538 0.320312C8.52309 0.528646 8.76267 0.802083 8.92413 1.14062C9.0908 1.47396 9.19757 1.85156 9.24445 2.27344C9.29653 2.6901 9.32257 3.10938 9.32257 3.53125V3.66406C9.32257 3.8776 9.32517 4.07031 9.33038 4.24219C9.33559 4.40885 9.35642 4.57292 9.39288 4.73438C9.42934 4.89062 9.48403 5.04948 9.55695 5.21094C9.63507 5.3724 9.74445 5.54688 9.88507 5.73438C10.1351 6.0625 10.3903 6.39323 10.6507 6.72656C10.9111 7.0599 11.1481 7.40365 11.3616 7.75781C11.5752 8.11198 11.7497 8.48438 11.8851 8.875C12.0257 9.26042 12.096 9.67448 12.096 10.1172C12.096 10.4766 12.0413 10.8229 11.9319 11.1562ZM5.37726 3.01562C5.45017 3.01562 5.51007 3.03646 5.55695 3.07812C5.60382 3.11458 5.64028 3.16146 5.66632 3.21875C5.69236 3.27604 5.71059 3.33854 5.72101 3.40625C5.73142 3.47396 5.73663 3.53906 5.73663 3.60156C5.73663 3.65365 5.72622 3.69531 5.70538 3.72656C5.68976 3.75781 5.66632 3.78646 5.63507 3.8125C5.60903 3.83854 5.57778 3.86458 5.54132 3.89062C5.51007 3.91667 5.48142 3.94792 5.45538 3.98438C5.41892 4.04167 5.36945 4.08854 5.30695 4.125C5.24445 4.16146 5.18195 4.20052 5.11945 4.24219C5.06215 4.28385 5.01007 4.33073 4.9632 4.38281C4.92153 4.42969 4.9007 4.49219 4.9007 4.57031C4.9007 4.61719 4.92413 4.65625 4.97101 4.6875C5.09601 4.77083 5.18455 4.875 5.23663 5C5.29392 5.11979 5.35122 5.23698 5.40851 5.35156C5.47101 5.46094 5.55174 5.55469 5.6507 5.63281C5.74965 5.71094 5.9033 5.75 6.11163 5.75H6.15851C6.36684 5.73958 6.56476 5.6849 6.75226 5.58594C6.94497 5.48177 7.13247 5.3776 7.31476 5.27344C7.3408 5.25781 7.37465 5.24219 7.41632 5.22656C7.45799 5.21094 7.49184 5.19271 7.51788 5.17188L8.0882 4.72656C8.09861 4.6901 8.10642 4.65625 8.11163 4.625C8.12205 4.58854 8.12726 4.55208 8.12726 4.51562C8.12726 4.45833 8.11424 4.41146 8.0882 4.375C8.06215 4.33854 8.0283 4.30729 7.98663 4.28125C7.95017 4.25521 7.90851 4.23698 7.86163 4.22656C7.81476 4.21094 7.76788 4.19792 7.72101 4.1875C7.59601 4.16146 7.47882 4.11458 7.36945 4.04688C7.26007 3.97396 7.14549 3.92188 7.0257 3.89062C7.00486 3.88542 6.98663 3.86979 6.97101 3.84375C6.96059 3.8125 6.95278 3.78125 6.94757 3.75C6.94236 3.71354 6.93715 3.67969 6.93195 3.64844C6.93195 3.61198 6.93195 3.58594 6.93195 3.57031C6.93195 3.50781 6.93715 3.44271 6.94757 3.375C6.9632 3.30208 6.98663 3.23698 7.01788 3.17969C7.04913 3.1224 7.0908 3.07552 7.14288 3.03906C7.20017 3.0026 7.26788 2.98438 7.34601 2.98438C7.50747 2.98438 7.62465 3.04427 7.69757 3.16406C7.7757 3.28385 7.81476 3.41406 7.81476 3.55469C7.81476 3.6224 7.80174 3.6849 7.7757 3.74219C7.74965 3.79427 7.73663 3.84896 7.73663 3.90625C7.73663 3.94792 7.74965 3.97917 7.7757 4C7.80695 4.01562 7.8408 4.02344 7.87726 4.02344C7.99705 4.02344 8.07517 3.99479 8.11163 3.9375C8.1533 3.875 8.17413 3.78906 8.17413 3.67969C8.17413 3.5599 8.16111 3.42708 8.13507 3.28125C8.11424 3.13542 8.07257 3 8.01007 2.875C7.95278 2.75 7.87205 2.64583 7.76788 2.5625C7.66892 2.47917 7.54392 2.4375 7.39288 2.4375C7.12205 2.4375 6.92413 2.50781 6.79913 2.64844C6.67934 2.78385 6.61945 2.98438 6.61945 3.25C6.61945 3.32812 6.62465 3.40625 6.63507 3.48438C6.64549 3.5625 6.6507 3.64062 6.6507 3.71875C6.6507 3.74479 6.64809 3.75781 6.64288 3.75781C6.63767 3.75781 6.62205 3.7526 6.59601 3.74219C6.56997 3.73177 6.53872 3.71875 6.50226 3.70312C6.4658 3.6875 6.42413 3.67448 6.37726 3.66406C6.33559 3.65365 6.29653 3.64844 6.26007 3.64844C6.24965 3.64844 6.22361 3.65104 6.18195 3.65625C6.14028 3.66146 6.09861 3.66406 6.05695 3.66406C5.98403 3.66406 5.94757 3.65104 5.94757 3.625C5.94757 3.54688 5.93976 3.44792 5.92413 3.32812C5.91372 3.20312 5.89028 3.08333 5.85382 2.96875C5.81736 2.85417 5.76267 2.75521 5.68976 2.67188C5.62205 2.58854 5.5309 2.54688 5.41632 2.54688C5.32778 2.54688 5.24965 2.57552 5.18195 2.63281C5.11945 2.6901 5.06736 2.76042 5.0257 2.84375C4.98403 2.92188 4.95278 3.00781 4.93195 3.10156C4.91632 3.19531 4.90851 3.27865 4.90851 3.35156C4.90851 3.38281 4.91372 3.4375 4.92413 3.51562C4.93976 3.59375 4.95799 3.67448 4.97882 3.75781C5.00486 3.84115 5.03351 3.91406 5.06476 3.97656C5.09601 4.03906 5.13247 4.07031 5.17413 4.07031C5.20017 4.07031 5.23403 4.05208 5.2757 4.01562C5.31736 3.97396 5.3382 3.9401 5.3382 3.91406C5.3382 3.89844 5.32778 3.88802 5.30695 3.88281C5.29132 3.8776 5.2783 3.875 5.26788 3.875C5.23142 3.875 5.20017 3.85677 5.17413 3.82031C5.14809 3.78385 5.12465 3.74219 5.10382 3.69531C5.0882 3.64323 5.07517 3.59375 5.06476 3.54688C5.05434 3.49479 5.04913 3.45573 5.04913 3.42969C5.04913 3.32552 5.07257 3.23177 5.11945 3.14844C5.17153 3.0599 5.25747 3.01562 5.37726 3.01562ZM3.67413 15.1797C3.79913 15.1797 3.92153 15.1693 4.04132 15.1484C4.16632 15.1224 4.2783 15.0807 4.37726 15.0234C4.47622 14.9609 4.55434 14.8802 4.61163 14.7812C4.67413 14.6823 4.70538 14.5573 4.70538 14.4062C4.70538 14.3125 4.68715 14.2214 4.6507 14.1328C4.61945 14.0443 4.57778 13.9609 4.5257 13.8828C4.4632 13.7839 4.39549 13.6901 4.32257 13.6016C4.24965 13.513 4.18195 13.4193 4.11945 13.3203C4.02049 13.1745 3.92413 13.0312 3.83038 12.8906C3.73663 12.7448 3.64288 12.5964 3.54913 12.4453C3.4658 12.3099 3.38767 12.1745 3.31476 12.0391C3.24184 11.8984 3.1533 11.7656 3.04913 11.6406C2.98663 11.5625 2.91111 11.4922 2.82257 11.4297C2.73924 11.3672 2.64549 11.3359 2.54132 11.3359C2.42674 11.3359 2.32778 11.375 2.24445 11.4531C2.16111 11.526 2.07517 11.612 1.98663 11.7109C1.89809 11.8099 1.79913 11.9115 1.68976 12.0156C1.58038 12.1198 1.43976 12.1979 1.26788 12.25C1.13247 12.2917 1.0283 12.349 0.955383 12.4219C0.882467 12.4948 0.846008 12.6068 0.846008 12.7578C0.846008 12.862 0.853821 12.9661 0.869446 13.0703C0.890279 13.1745 0.900696 13.2786 0.900696 13.3828C0.900696 13.5234 0.879862 13.6562 0.838196 13.7812C0.796529 13.9062 0.775696 14.0286 0.775696 14.1484C0.775696 14.2891 0.825175 14.388 0.924133 14.4453C1.0283 14.5026 1.14028 14.5417 1.26007 14.5625C1.41632 14.5885 1.56476 14.612 1.70538 14.6328C1.84601 14.6484 1.98403 14.6693 2.11945 14.6953C2.25486 14.7214 2.39028 14.7552 2.5257 14.7969C2.66111 14.8385 2.80434 14.8958 2.95538 14.9688C2.98663 14.9844 3.03351 15.0052 3.09601 15.0312C3.16372 15.0521 3.23403 15.0755 3.30695 15.1016C3.38507 15.1224 3.45799 15.1406 3.5257 15.1562C3.5934 15.1719 3.64288 15.1797 3.67413 15.1797ZM6.53351 14.2422C6.67934 14.2422 6.83559 14.2266 7.00226 14.1953C7.17413 14.1641 7.3408 14.1198 7.50226 14.0625C7.66892 14.0052 7.82778 13.9375 7.97882 13.8594C8.12986 13.7812 8.26528 13.6953 8.38507 13.6016C8.39549 13.5911 8.4059 13.5755 8.41632 13.5547C8.42674 13.5286 8.43455 13.5078 8.43976 13.4922V13.4844C8.47101 13.3698 8.49705 13.2448 8.51788 13.1094C8.53872 12.974 8.55695 12.8359 8.57257 12.6953C8.5934 12.5547 8.61163 12.4167 8.62726 12.2812C8.64288 12.1406 8.66111 12.0078 8.68195 11.8828C8.70278 11.7422 8.72882 11.6068 8.76007 11.4766C8.79132 11.3464 8.83299 11.224 8.88507 11.1094C8.93715 10.9948 9.00747 10.8932 9.09601 10.8047C9.18455 10.7109 9.29913 10.6276 9.43976 10.5547C9.43976 10.5443 9.43715 10.5391 9.43195 10.5391C9.43195 10.5339 9.43195 10.526 9.43195 10.5156C9.43195 10.4688 9.44757 10.4193 9.47882 10.3672C9.51007 10.3099 9.54913 10.2552 9.59601 10.2031C9.64288 10.151 9.69236 10.1068 9.74445 10.0703C9.80174 10.0339 9.85642 10.0078 9.90851 9.99219C9.87726 9.86719 9.8434 9.74219 9.80695 9.61719C9.77049 9.49219 9.73924 9.36719 9.7132 9.24219C9.68195 9.05469 9.6507 8.89583 9.61945 8.76562C9.5882 8.63542 9.54913 8.51562 9.50226 8.40625C9.46059 8.29688 9.4033 8.1901 9.33038 8.08594C9.25747 7.97656 9.16111 7.85156 9.04132 7.71094C8.98403 7.64323 8.94497 7.59115 8.92413 7.55469C8.9033 7.51302 8.88767 7.44792 8.87726 7.35938C8.87205 7.32292 8.85642 7.25521 8.83038 7.15625C8.80434 7.05208 8.77049 6.9375 8.72882 6.8125C8.68715 6.68229 8.63767 6.54688 8.58038 6.40625C8.5283 6.26562 8.47361 6.13802 8.41632 6.02344C8.35903 5.90365 8.30174 5.80729 8.24445 5.73438C8.18715 5.65625 8.13247 5.61719 8.08038 5.61719C7.95538 5.61719 7.80434 5.66667 7.62726 5.76562C7.45538 5.86458 7.27309 5.97656 7.08038 6.10156C6.89288 6.22135 6.70538 6.33073 6.51788 6.42969C6.33559 6.52865 6.17413 6.57812 6.03351 6.57812C5.87726 6.57812 5.73142 6.52865 5.59601 6.42969C5.4658 6.32552 5.34601 6.21094 5.23663 6.08594C5.13247 5.96094 5.04392 5.84896 4.97101 5.75C4.89809 5.64583 4.8434 5.59375 4.80695 5.59375C4.76528 5.59375 4.74184 5.6276 4.73663 5.69531C4.73142 5.75781 4.72882 5.82552 4.72882 5.89844V5.92969C4.72882 5.96615 4.72882 6 4.72882 6.03125C4.72882 6.0625 4.72361 6.08333 4.7132 6.09375C4.6559 6.21354 4.5908 6.33073 4.51788 6.44531C4.45017 6.5599 4.38507 6.67708 4.32257 6.79688C4.26007 6.91667 4.20799 7.03906 4.16632 7.16406C4.12465 7.28906 4.10382 7.41927 4.10382 7.55469C4.10382 7.63281 4.10903 7.71094 4.11945 7.78906C4.13507 7.86719 4.16111 7.94271 4.19757 8.01562L4.18195 8.04688C4.14028 8.10417 4.09601 8.15885 4.04913 8.21094C4.00226 8.25781 3.95799 8.3099 3.91632 8.36719C3.72361 8.65365 3.58559 8.96615 3.50226 9.30469C3.42413 9.63802 3.38507 9.97396 3.38507 10.3125C3.38507 10.401 3.39028 10.4896 3.4007 10.5781C3.41111 10.6667 3.41632 10.7552 3.41632 10.8438C3.41632 10.8698 3.41372 10.8984 3.40851 10.9297C3.4033 10.9609 3.4007 10.9896 3.4007 11.0156C3.48924 11.0208 3.5934 11.0573 3.7132 11.125C3.8382 11.1927 3.9684 11.2812 4.10382 11.3906C4.23924 11.4948 4.37205 11.6146 4.50226 11.75C4.63767 11.8802 4.75747 12.013 4.86163 12.1484C4.9658 12.2786 5.04913 12.4062 5.11163 12.5312C5.17934 12.6562 5.2132 12.763 5.2132 12.8516C5.2132 12.987 5.16892 13.099 5.08038 13.1875C4.99705 13.2708 4.89549 13.3359 4.7757 13.3828C4.86424 13.5391 4.97361 13.6719 5.10382 13.7812C5.23403 13.8906 5.37465 13.9792 5.5257 14.0469C5.68195 14.1146 5.84601 14.1641 6.01788 14.1953C6.18976 14.2266 6.36163 14.2422 6.53351 14.2422ZM9.66632 15.3516C9.7757 15.3516 9.88247 15.3359 9.98663 15.3047C10.1481 15.2578 10.2965 15.1901 10.4319 15.1016C10.5726 15.0078 10.6976 14.8984 10.8069 14.7734C10.9476 14.612 11.096 14.4714 11.2523 14.3516C11.4085 14.2266 11.5856 14.1172 11.7835 14.0234C11.872 13.9818 11.958 13.9427 12.0413 13.9062C12.1299 13.8698 12.2158 13.8255 12.2991 13.7734C12.3564 13.737 12.4111 13.6927 12.4632 13.6406C12.5153 13.5885 12.5413 13.526 12.5413 13.4531C12.5413 13.4115 12.5309 13.3724 12.5101 13.3359C12.4944 13.2943 12.4736 13.2552 12.4476 13.2188C12.3694 13.1094 12.3017 13.0078 12.2444 12.9141C12.1872 12.8151 12.1351 12.7161 12.0882 12.6172C12.0465 12.5182 12.0075 12.4141 11.971 12.3047C11.9345 12.1953 11.8981 12.0781 11.8616 11.9531C11.8564 11.9271 11.8382 11.8932 11.8069 11.8516C11.6976 11.6953 11.5439 11.6172 11.346 11.6172C11.2523 11.6172 11.1611 11.6406 11.0726 11.6875C10.9892 11.7344 10.9007 11.7865 10.8069 11.8438C10.7184 11.8958 10.6273 11.9453 10.5335 11.9922C10.4398 12.0339 10.3408 12.0547 10.2366 12.0547C10.1325 12.0547 10.0465 12.0286 9.97882 11.9766C9.91111 11.9193 9.85382 11.849 9.80695 11.7656C9.76007 11.6823 9.72101 11.5964 9.68976 11.5078C9.65851 11.4141 9.62726 11.3281 9.59601 11.25C9.55434 11.3177 9.50747 11.3828 9.45538 11.4453C9.4033 11.5026 9.36163 11.5677 9.33038 11.6406C9.26267 11.7969 9.22101 11.9714 9.20538 12.1641C9.17934 12.4661 9.14288 12.7604 9.09601 13.0469C9.05434 13.3333 8.98663 13.6198 8.89288 13.9062C8.86684 13.9896 8.8434 14.0833 8.82257 14.1875C8.80695 14.2865 8.79913 14.3802 8.79913 14.4688C8.79913 14.724 8.87726 14.9349 9.03351 15.1016C9.19497 15.2682 9.4059 15.3516 9.66632 15.3516Z" fill="#191919"></path></svg> 