<?xml version="1.0" encoding="UTF-8"?> <svg xmlns="http://www.w3.org/2000/svg" width="72" height="73" viewBox="0 0 72 73" fill="none"><g clip-path="url(#clip0_1152_114995)"><g clip-path="url(#clip1_1152_114995)"><mask id="mask0_1152_114995" style="mask-type:alpha" maskUnits="userSpaceOnUse" x="3" y="3" width="66" height="67"><path d="M15.1542 59.4668L4.18345 51.2382C3.84137 50.9841 3.56381 50.6531 3.37317 50.272C3.18253 49.8909 3.08415 49.4704 3.08596 49.0442V24.3585C3.08415 23.9324 3.18253 23.5118 3.37317 23.1307C3.56381 22.7496 3.84137 22.4187 4.18345 22.1646L15.1542 13.936C14.8595 14.2128 14.6368 14.5572 14.5054 14.9396C14.374 15.3219 14.3379 15.7305 14.4002 16.13V57.2728C14.3379 57.6723 14.374 58.0809 14.5054 58.4632C14.6368 58.8455 14.8595 59.19 15.1542 59.4668Z" fill="white"></path><path d="M67.6936 15.2115C67.2416 14.9145 66.7122 14.7571 66.1713 14.7589C65.8209 14.7561 65.4734 14.8224 65.1486 14.9541C64.8239 15.0857 64.5283 15.2802 64.2787 15.5262L64.0874 15.7186L42.1994 36.7014L30.089 48.3171L18.8848 59.0553L18.6925 59.2477C18.4432 59.4941 18.1477 59.6889 17.8229 59.8208C17.4981 59.9526 17.1504 60.019 16.7999 60.016C16.2065 60.0148 15.6293 59.8222 15.1542 59.4668L4.18345 51.2382C4.74081 51.6569 5.4368 51.8475 6.12971 51.771C6.82262 51.6946 7.46035 51.3569 7.91304 50.8268L20.0913 36.688L30.089 25.0857L47.6025 4.74678C47.8568 4.44557 48.1739 4.2036 48.5316 4.03783C48.8892 3.87206 49.2788 3.78649 49.673 3.78712C50.2139 3.78538 50.7433 3.94277 51.1953 4.2397L67.6936 15.2115Z" fill="white"></path><path d="M67.6936 58.1913L51.2365 69.1631C50.6766 69.5287 50.0037 69.68 49.3412 69.5894C48.6788 69.4987 48.0713 69.172 47.6303 68.6694L30.089 48.3171L20.0913 36.688L7.91304 22.5616C7.45631 22.0368 6.81799 21.7043 6.12621 21.6306C5.43444 21.557 4.74042 21.7478 4.18345 22.1646L15.1542 13.936C15.6293 13.5806 16.2065 13.3879 16.7999 13.3867C17.1504 13.3838 17.4981 13.4501 17.8229 13.582C18.1477 13.7139 18.4432 13.9086 18.6925 14.1551L18.8848 14.3474L30.089 25.0857L42.1994 36.7014L64.0874 57.6842L64.2787 57.8766C64.5283 58.1226 64.8239 58.317 65.1486 58.4487C65.4734 58.5804 65.8209 58.6467 66.1713 58.6439C66.7122 58.6456 67.2416 58.4882 67.6936 58.1913Z" fill="white"></path><path d="M68.9145 17.5011V55.9017C68.9149 56.3543 68.8038 56.8001 68.5908 57.1994C68.3778 57.5988 68.0697 57.9395 67.6936 58.1913L51.2365 69.1631C51.6125 68.911 51.9207 68.5701 52.1336 68.1706C52.3466 67.7711 52.4578 67.3252 52.4574 66.8725V6.53031C52.4513 6.07422 52.333 5.62664 52.1129 5.22714C51.8927 4.82763 51.5776 4.4885 51.1953 4.2397L67.6936 15.2115C68.0687 15.4643 68.3761 15.8052 68.589 16.2043C68.8018 16.6035 68.9136 17.0487 68.9145 17.5011Z" fill="white"></path></mask><g mask="url(#mask0_1152_114995)"><path d="M15.1542 59.4682L4.18345 51.2397C3.84137 50.9856 3.56381 50.6546 3.37317 50.2735C3.18253 49.8924 3.08415 49.4718 3.08596 49.0457V24.36C3.08415 23.9339 3.18253 23.5133 3.37317 23.1322C3.56381 22.7511 3.84137 22.4202 4.18345 22.1661L15.1542 13.9375C14.8595 14.2142 14.6368 14.5587 14.5054 14.9411C14.374 15.3234 14.3379 15.732 14.4002 16.1314V57.2743C14.3379 57.6737 14.374 58.0824 14.5054 58.4647C14.6368 58.847 14.8595 59.1915 15.1542 59.4682Z" fill="#5E438F"></path><g filter="url(#filter0_dd_1152_114995)"><path d="M67.6938 15.2115C67.2417 14.9145 66.7123 14.7571 66.1715 14.7589C65.8211 14.7561 65.4735 14.8224 65.1488 14.9541C64.824 15.0857 64.5284 15.2802 64.2789 15.5262L64.0876 15.7186L52.4298 26.896L42.1996 36.7014L30.0892 48.3171L18.885 59.0554L18.6926 59.2477C18.4434 59.4942 18.1478 59.6889 17.823 59.8208C17.4982 59.9526 17.1506 60.019 16.8 60.016C16.2067 60.0149 15.6295 59.8222 15.1543 59.4668L4.18359 51.2382C4.74095 51.6569 5.43695 51.8475 6.12986 51.771C6.82278 51.6946 7.46051 51.3569 7.91319 50.8268L14.0579 43.6957L20.0915 36.688L30.0892 25.0858L47.6027 4.74678C47.857 4.44557 48.1741 4.2036 48.5317 4.03783C48.8894 3.87206 49.279 3.78649 49.6732 3.78712C50.214 3.78538 50.7434 3.94277 51.1955 4.2397L67.6938 15.2115Z" fill="url(#paint0_linear_1152_114995)"></path></g><g filter="url(#filter1_dd_1152_114995)"><path d="M67.6938 58.1914L51.2366 69.1632C50.6768 69.5288 50.0038 69.6801 49.3414 69.5894C48.6789 69.4987 48.0714 69.1721 47.6304 68.6694L30.0892 48.3171L20.0915 36.6881L14.0579 29.6938L7.91319 22.5617C7.45646 22.0369 6.81814 21.7043 6.12637 21.6307C5.43459 21.5571 4.74056 21.7478 4.18359 22.1646L15.1543 13.9361C15.6295 13.5806 16.2067 13.388 16.8 13.3868C17.1506 13.3839 17.4982 13.4502 17.823 13.5821C18.1478 13.7139 18.4434 13.9087 18.6926 14.1552L18.885 14.3475L30.0892 25.0858L42.1996 36.7014L52.4442 46.5212L64.0876 57.6843L64.2789 57.8766C64.5284 58.1227 64.824 58.3171 65.1488 58.4488C65.4735 58.5804 65.8211 58.6468 66.1715 58.644C66.7123 58.6457 67.2417 58.4883 67.6938 58.1914Z" fill="url(#paint1_linear_1152_114995)"></path></g><g filter="url(#filter2_dd_1152_114995)"><path d="M68.9145 17.5016V55.9023C68.9149 56.3549 68.8037 56.8006 68.5908 57.2C68.3778 57.5994 68.0697 57.9401 67.6936 58.1919L51.2365 69.1637C51.6125 68.9116 51.9207 68.5707 52.1336 68.1712C52.3466 67.7716 52.4578 67.3258 52.4574 66.873V6.53086C52.4513 6.07477 52.333 5.6272 52.1129 5.22769C51.8927 4.82818 51.5776 4.48904 51.1953 4.24023L67.6936 15.212C68.0687 15.4648 68.3761 15.8057 68.589 16.2049C68.8018 16.604 68.9136 17.0493 68.9145 17.5016Z" fill="url(#paint2_linear_1152_114995)"></path></g></g></g></g><defs><filter id="filter0_dd_1152_114995" x="-1.30212" y="-0.327176" width="74.4812" height="67.1999" filterUnits="userSpaceOnUse" color-interpolation-filters="sRGB"><feFlood flood-opacity="0" result="BackgroundImageFix"></feFlood><feColorMatrix in="SourceAlpha" type="matrix" values="0 0 0 0 0 0 0 0 0 0 0 0 0 0 0 0 0 0 127 0" result="hardAlpha"></feColorMatrix><feOffset dy="0.260571"></feOffset><feGaussianBlur stdDeviation="0.260571"></feGaussianBlur><feColorMatrix type="matrix" values="0 0 0 0 0 0 0 0 0 0 0 0 0 0 0 0 0 0 0.24 0"></feColorMatrix><feBlend mode="normal" in2="BackgroundImageFix" result="effect1_dropShadow_1152_114995"></feBlend><feColorMatrix in="SourceAlpha" type="matrix" values="0 0 0 0 0 0 0 0 0 0 0 0 0 0 0 0 0 0 127 0" result="hardAlpha"></feColorMatrix><feOffset dy="1.37143"></feOffset><feGaussianBlur stdDeviation="2.74286"></feGaussianBlur><feColorMatrix type="matrix" values="0 0 0 0 0 0 0 0 0 0 0 0 0 0 0 0 0 0 0.22 0"></feColorMatrix><feBlend mode="normal" in2="effect1_dropShadow_1152_114995" result="effect2_dropShadow_1152_114995"></feBlend><feBlend mode="normal" in="SourceGraphic" in2="effect2_dropShadow_1152_114995" result="shape"></feBlend></filter><filter id="filter1_dd_1152_114995" x="-1.30212" y="9.27243" width="74.4812" height="67.1999" filterUnits="userSpaceOnUse" color-interpolation-filters="sRGB"><feFlood flood-opacity="0" result="BackgroundImageFix"></feFlood><feColorMatrix in="SourceAlpha" type="matrix" values="0 0 0 0 0 0 0 0 0 0 0 0 0 0 0 0 0 0 127 0" result="hardAlpha"></feColorMatrix><feOffset dy="0.260571"></feOffset><feGaussianBlur stdDeviation="0.260571"></feGaussianBlur><feColorMatrix type="matrix" values="0 0 0 0 0 0 0 0 0 0 0 0 0 0 0 0 0 0 0.24 0"></feColorMatrix><feBlend mode="normal" in2="BackgroundImageFix" result="effect1_dropShadow_1152_114995"></feBlend><feColorMatrix in="SourceAlpha" type="matrix" values="0 0 0 0 0 0 0 0 0 0 0 0 0 0 0 0 0 0 127 0" result="hardAlpha"></feColorMatrix><feOffset dy="1.37143"></feOffset><feGaussianBlur stdDeviation="2.74286"></feGaussianBlur><feColorMatrix type="matrix" values="0 0 0 0 0 0 0 0 0 0 0 0 0 0 0 0 0 0 0.22 0"></feColorMatrix><feBlend mode="normal" in2="effect1_dropShadow_1152_114995" result="effect2_dropShadow_1152_114995"></feBlend><feBlend mode="normal" in="SourceGraphic" in2="effect2_dropShadow_1152_114995" result="shape"></feBlend></filter><filter id="filter2_dd_1152_114995" x="34.7382" y="-12.2169" width="50.633" height="97.8381" filterUnits="userSpaceOnUse" color-interpolation-filters="sRGB"><feFlood flood-opacity="0" result="BackgroundImageFix"></feFlood><feColorMatrix in="SourceAlpha" type="matrix" values="0 0 0 0 0 0 0 0 0 0 0 0 0 0 0 0 0 0 127 0" result="hardAlpha"></feColorMatrix><feOffset></feOffset><feGaussianBlur stdDeviation="0.137143"></feGaussianBlur><feColorMatrix type="matrix" values="0 0 0 0 0 0 0 0 0 0 0 0 0 0 0 0 0 0 0.24 0"></feColorMatrix><feBlend mode="normal" in2="BackgroundImageFix" result="effect1_dropShadow_1152_114995"></feBlend><feColorMatrix in="SourceAlpha" type="matrix" values="0 0 0 0 0 0 0 0 0 0 0 0 0 0 0 0 0 0 127 0" result="hardAlpha"></feColorMatrix><feOffset></feOffset><feGaussianBlur stdDeviation="8.22857"></feGaussianBlur><feColorMatrix type="matrix" values="0 0 0 0 0 0 0 0 0 0 0 0 0 0 0 0 0 0 0.3 0"></feColorMatrix><feBlend mode="normal" in2="effect1_dropShadow_1152_114995" result="effect2_dropShadow_1152_114995"></feBlend><feBlend mode="normal" in="SourceGraphic" in2="effect2_dropShadow_1152_114995" result="shape"></feBlend></filter><linearGradient id="paint0_linear_1152_114995" x1="56.5715" y1="3.78711" x2="7.69078" y2="52.9845" gradientUnits="userSpaceOnUse"><stop stop-color="#7252AA"></stop><stop offset="1" stop-color="#7252AA"></stop></linearGradient><linearGradient id="paint1_linear_1152_114995" x1="9.25776" y1="15.7867" x2="55.2003" y2="67.2147" gradientUnits="userSpaceOnUse"><stop stop-color="#AE7FE2"></stop><stop offset="1" stop-color="#9A70D4"></stop></linearGradient><linearGradient id="paint2_linear_1152_114995" x1="59.8598" y1="2.91645" x2="59.8598" y2="69.1086" gradientUnits="userSpaceOnUse"><stop stop-color="#D59DFF"></stop><stop offset="1" stop-color="#C18EF1"></stop></linearGradient><clipPath id="clip0_1152_114995"><rect width="65.8286" height="65.8286" fill="white" transform="translate(3.08594 3.78711)"></rect></clipPath><clipPath id="clip1_1152_114995"><rect width="65.8286" height="65.8286" fill="white" transform="translate(3.08594 3.78711)"></rect></clipPath></defs></svg> 