<?xml version="1.0" encoding="UTF-8"?> <svg xmlns="http://www.w3.org/2000/svg" width="72" height="73" viewBox="0 0 72 73" fill="none"><g clip-path="url(#clip0_1152_115006)"><g filter="url(#filter0_d_1152_115006)"><rect x="3.30859" y="4.00977" width="65.3824" height="65.3824" rx="14.4596" fill="white"></rect><rect x="3.30859" y="4.00977" width="65.3824" height="65.3824" rx="14.4596" fill="white"></rect></g><g filter="url(#filter1_dd_1152_115006)"><path d="M21.6657 52.3551L14.1216 46.6971C13.8865 46.5222 13.6957 46.2946 13.5647 46.0325C13.4337 45.7704 13.366 45.4812 13.3672 45.1882V28.214C13.366 27.921 13.4337 27.6318 13.5647 27.3697C13.6957 27.1076 13.8865 26.88 14.1216 26.7051L21.6657 21.047C21.4306 21.2219 21.2399 21.4495 21.1088 21.7116C20.9778 21.9737 20.9101 22.2629 20.9113 22.5559V50.8463C20.9101 51.1393 20.9778 51.4285 21.1088 51.6906C21.2399 51.9527 21.4306 52.1803 21.6657 52.3551Z" fill="url(#paint0_linear_1152_115006)"></path><path d="M57.7927 21.9237C57.4818 21.7196 57.1178 21.6114 56.7459 21.6125C56.5049 21.6105 56.2659 21.6561 56.0426 21.7468C55.8193 21.8374 55.616 21.9712 55.4446 22.1406L55.3126 22.2726L47.2969 29.9582L40.262 36.7007L31.9352 44.6881L24.2308 52.0719L24.0987 52.2039C23.9273 52.3733 23.7241 52.5071 23.5007 52.5977C23.2774 52.6883 23.0384 52.734 22.7974 52.732C22.3894 52.7312 21.9926 52.5993 21.6657 52.3551L14.1216 46.6971C14.5051 46.9847 14.9837 47.1151 15.4601 47.0626C15.9365 47.01 16.3751 46.7781 16.6866 46.4138L25.0606 36.6913L31.9352 28.7134L43.9775 14.7285C44.1524 14.5213 44.3705 14.3549 44.6164 14.2408C44.8624 14.1268 45.1303 14.0679 45.4015 14.0684C45.7733 14.0673 46.1373 14.1755 46.4482 14.3796L57.7927 21.9237Z" fill="url(#paint1_linear_1152_115006)"></path><path d="M57.7927 51.4778L46.4765 59.022C46.0916 59.2737 45.6287 59.378 45.173 59.3156C44.7173 59.2532 44.2995 59.0284 43.9964 58.6825L31.9352 44.6881L25.0606 36.6913L16.6866 26.9783C16.3724 26.6176 15.9335 26.389 15.4578 26.3383C14.9821 26.2876 14.5048 26.4188 14.1216 26.7051L21.6657 21.047C21.9926 20.8029 22.3894 20.6703 22.7974 20.6695C23.0384 20.6675 23.2774 20.7132 23.5007 20.8038C23.7241 20.8944 23.9273 21.0283 24.0987 21.1976L24.2308 21.3296L31.9352 28.7134L40.262 36.7007L47.3064 43.4528L55.3126 51.1289L55.4446 51.2609C55.616 51.4303 55.8193 51.5641 56.0426 51.6548C56.2659 51.7454 56.5049 51.791 56.7459 51.789C57.1178 51.7901 57.4818 51.6819 57.7927 51.4778Z" fill="url(#paint2_linear_1152_115006)"></path><path d="M58.6319 23.4986V49.903C58.6322 50.2143 58.5558 50.5208 58.4094 50.7955C58.263 51.0702 58.0512 51.3045 57.7927 51.4778L46.4765 59.022C46.7351 58.8487 46.9468 58.6143 47.0932 58.3396C47.2396 58.0649 47.316 57.7584 47.3157 57.4471L47.3064 43.4528L47.2969 29.9582L47.2874 15.9545C47.2889 15.643 47.213 15.336 47.0665 15.0611C46.92 14.7863 46.7076 14.552 46.4482 14.3796L57.7927 21.9237C58.0506 22.0976 58.2619 22.3322 58.4082 22.6068C58.5545 22.8813 58.6313 23.1875 58.6319 23.4986Z" fill="url(#paint3_linear_1152_115006)"></path></g><g clip-path="url(#clip1_1152_115006)"><mask id="mask0_1152_115006" style="mask-type:alpha" maskUnits="userSpaceOnUse" x="13" y="14" width="46" height="46"><path d="M21.6657 52.3551L14.1216 46.6971C13.8865 46.5222 13.6957 46.2946 13.5647 46.0325C13.4337 45.7704 13.366 45.4812 13.3672 45.1882V28.214C13.366 27.921 13.4337 27.6318 13.5647 27.3697C13.6957 27.1076 13.8865 26.88 14.1216 26.7051L21.6657 21.047C21.4306 21.2219 21.2399 21.4495 21.1088 21.7116C20.9778 21.9737 20.9101 22.2629 20.9113 22.5559V50.8463C20.9101 51.1393 20.9778 51.4285 21.1088 51.6906C21.2399 51.9527 21.4306 52.1803 21.6657 52.3551Z" fill="white"></path><path d="M57.7927 21.9237C57.4818 21.7196 57.1178 21.6114 56.7459 21.6125C56.5049 21.6105 56.2659 21.6561 56.0426 21.7468C55.8193 21.8374 55.616 21.9712 55.4446 22.1406L55.3126 22.2726L47.2969 29.9582L40.262 36.7007L31.9352 44.6881L24.2308 52.0719L24.0987 52.2039C23.9273 52.3733 23.7241 52.5071 23.5007 52.5977C23.2774 52.6884 23.0384 52.734 22.7974 52.732C22.3894 52.7312 21.9926 52.5993 21.6657 52.3551L14.1216 46.6971C14.5051 46.9847 14.9837 47.1151 15.4601 47.0626C15.9365 47.01 16.3751 46.7781 16.6866 46.4138L25.0606 36.6913L31.9352 28.7134L43.9775 14.7285C44.1524 14.5213 44.3705 14.3549 44.6164 14.2408C44.8624 14.1268 45.1303 14.0679 45.4015 14.0684C45.7733 14.0673 46.1373 14.1755 46.4482 14.3796L57.7927 21.9237Z" fill="white"></path><path d="M57.7927 51.4778L46.4765 59.022C46.0916 59.2737 45.6287 59.378 45.173 59.3156C44.7173 59.2532 44.2995 59.0284 43.9964 58.6825L31.9352 44.6881L25.0606 36.6913L16.6866 26.9783C16.3724 26.6176 15.9335 26.389 15.4578 26.3383C14.9821 26.2876 14.5048 26.4188 14.1216 26.7051L21.6657 21.047C21.9926 20.8029 22.3894 20.6703 22.7974 20.6695C23.0384 20.6675 23.2774 20.7132 23.5007 20.8038C23.7241 20.8944 23.9273 21.0283 24.0987 21.1976L24.2308 21.3296L31.9352 28.7134L40.262 36.7007L47.3064 43.4528L55.3126 51.1289L55.4446 51.2609C55.616 51.4303 55.8193 51.5641 56.0426 51.6548C56.2659 51.7454 56.5049 51.791 56.7459 51.789C57.1178 51.7901 57.4818 51.6819 57.7927 51.4778Z" fill="white"></path><path d="M58.6319 23.4986V49.903C58.6322 50.2143 58.5558 50.5208 58.4094 50.7955C58.263 51.0702 58.0512 51.3045 57.7927 51.4778L46.4765 59.022C46.7351 58.8487 46.9468 58.6143 47.0932 58.3396C47.2396 58.0649 47.316 57.7584 47.3157 57.4471L47.3064 43.4528L47.2969 29.9582L47.2874 15.9545C47.2889 15.643 47.213 15.336 47.0665 15.0611C46.92 14.7863 46.7076 14.552 46.4482 14.3796L57.7927 21.9237C58.0506 22.0976 58.2619 22.3322 58.4082 22.6068C58.5545 22.8813 58.6313 23.1875 58.6319 23.4986Z" fill="white"></path></mask><g mask="url(#mask0_1152_115006)"><path d="M21.6657 52.353L14.1216 46.6949C13.8865 46.5201 13.6957 46.2924 13.5647 46.0304C13.4337 45.7683 13.366 45.4791 13.3672 45.1861V28.2118C13.366 27.9188 13.4337 27.6296 13.5647 27.3676C13.6957 27.1055 13.8865 26.8779 14.1216 26.703L21.6657 21.0449C21.4306 21.2198 21.2399 21.4474 21.1088 21.7095C20.9778 21.9716 20.9101 22.2607 20.9113 22.5537V50.8442C20.9101 51.1372 20.9778 51.4264 21.1088 51.6885C21.2399 51.9505 21.4306 52.1782 21.6657 52.353Z" fill="#5E438F"></path><g filter="url(#filter2_dd_1152_115006)"><path d="M57.7921 21.9237C57.4813 21.7196 57.1173 21.6114 56.7454 21.6125C56.5044 21.6105 56.2654 21.6561 56.042 21.7468C55.8187 21.8374 55.6155 21.9712 55.444 22.1406L55.312 22.2726L47.2964 29.9582L40.2615 36.7007L31.9347 44.6881L24.2302 52.0719L24.0982 52.2039C23.9267 52.3733 23.7235 52.5071 23.5002 52.5977C23.2769 52.6883 23.0378 52.734 22.7968 52.732C22.3889 52.7312 21.9921 52.5989 21.6652 52.3548L14.1211 46.6967C14.5045 46.9843 14.9831 47.1151 15.4596 47.0626C15.936 47.01 16.3745 46.7781 16.6861 46.4138L20.9108 41.5101L25.0601 36.6913L31.9347 28.7134L43.977 14.7285C44.1518 14.5213 44.3699 14.3549 44.6159 14.2408C44.8619 14.1268 45.1298 14.0679 45.4009 14.0684C45.7728 14.0673 46.1368 14.1755 46.4477 14.3796L57.7921 21.9237Z" fill="url(#paint4_linear_1152_115006)"></path></g><g filter="url(#filter3_dd_1152_115006)"><path d="M57.7921 51.4783L46.4759 59.0224C46.091 59.2741 45.6281 59.3784 45.1725 59.316C44.7168 59.2537 44.2989 59.0288 43.9958 58.6829L31.9347 44.6886L25.0601 36.6918L20.9108 31.8824L16.6861 26.9788C16.3719 26.6181 15.9329 26.3895 15.4573 26.3387C14.9816 26.288 14.5043 26.4189 14.1211 26.7053L21.6652 21.0472C21.9921 20.8031 22.3889 20.6708 22.7968 20.67C23.0378 20.668 23.2769 20.7136 23.5002 20.8042C23.7235 20.8949 23.9267 21.0287 24.0982 21.1981L24.2302 21.3301L31.9347 28.7139L40.2615 36.7012L47.3058 43.4532L55.312 51.1294L55.444 51.2614C55.6155 51.4308 55.8187 51.5646 56.042 51.6552C56.2654 51.7458 56.5044 51.7915 56.7454 51.7895C57.1173 51.7906 57.4813 51.6824 57.7921 51.4783Z" fill="url(#paint5_linear_1152_115006)"></path></g><g filter="url(#filter4_dd_1152_115006)"><path d="M58.6291 23.4998V49.9042C58.6294 50.2155 58.553 50.522 58.4066 50.7967C58.2602 51.0714 58.0483 51.3058 57.7898 51.4791L46.4736 59.0232C46.7322 58.8499 46.944 58.6155 47.0904 58.3408C47.2368 58.0662 47.3132 57.7596 47.3129 57.4484L47.3035 43.454L47.294 29.9595L47.2846 15.9557C47.2861 15.6442 47.2102 15.3373 47.0637 15.0624C46.9172 14.7875 46.7047 14.5533 46.4453 14.3809L57.7898 21.925C58.0477 22.0989 58.259 22.3334 58.4054 22.608C58.5517 22.8825 58.6285 23.1887 58.6291 23.4998Z" fill="url(#paint6_linear_1152_115006)"></path></g></g></g></g><defs><filter id="filter0_d_1152_115006" x="1.57973" y="3.14533" width="68.8405" height="68.8405" filterUnits="userSpaceOnUse" color-interpolation-filters="sRGB"><feFlood flood-opacity="0" result="BackgroundImageFix"></feFlood><feColorMatrix in="SourceAlpha" type="matrix" values="0 0 0 0 0 0 0 0 0 0 0 0 0 0 0 0 0 0 127 0" result="hardAlpha"></feColorMatrix><feOffset dy="0.864431"></feOffset><feGaussianBlur stdDeviation="0.864431"></feGaussianBlur><feColorMatrix type="matrix" values="0 0 0 0 0 0 0 0 0 0 0 0 0 0 0 0 0 0 0.28 0"></feColorMatrix><feBlend mode="normal" in2="BackgroundImageFix" result="effect1_dropShadow_1152_115006"></feBlend><feBlend mode="normal" in="SourceGraphic" in2="effect1_dropShadow_1152_115006" result="shape"></feBlend></filter><filter id="filter1_dd_1152_115006" x="12.4804" y="13.9198" width="47.0392" height="47.7789" filterUnits="userSpaceOnUse" color-interpolation-filters="sRGB"><feFlood flood-opacity="0" result="BackgroundImageFix"></feFlood><feColorMatrix in="SourceAlpha" type="matrix" values="0 0 0 0 0 0 0 0 0 0 0 0 0 0 0 0 0 0 127 0" result="hardAlpha"></feColorMatrix><feOffset dy="0.185656"></feOffset><feGaussianBlur stdDeviation="0.167091"></feGaussianBlur><feColorMatrix type="matrix" values="0 0 0 0 0 0 0 0 0 0 0 0 0 0 0 0 0 0 0.12 0"></feColorMatrix><feBlend mode="normal" in2="BackgroundImageFix" result="effect1_dropShadow_1152_115006"></feBlend><feColorMatrix in="SourceAlpha" type="matrix" values="0 0 0 0 0 0 0 0 0 0 0 0 0 0 0 0 0 0 127 0" result="hardAlpha"></feColorMatrix><feOffset dy="1.47796"></feOffset><feGaussianBlur stdDeviation="0.443387"></feGaussianBlur><feColorMatrix type="matrix" values="0 0 0 0 0 0 0 0 0 0 0 0 0 0 0 0 0 0 0.2 0"></feColorMatrix><feBlend mode="normal" in2="effect1_dropShadow_1152_115006" result="effect2_dropShadow_1152_115006"></feBlend><feBlend mode="normal" in="SourceGraphic" in2="effect2_dropShadow_1152_115006" result="shape"></feBlend></filter><filter id="filter2_dd_1152_115006" x="10.349" y="11.2393" width="51.216" height="46.2082" filterUnits="userSpaceOnUse" color-interpolation-filters="sRGB"><feFlood flood-opacity="0" result="BackgroundImageFix"></feFlood><feColorMatrix in="SourceAlpha" type="matrix" values="0 0 0 0 0 0 0 0 0 0 0 0 0 0 0 0 0 0 127 0" result="hardAlpha"></feColorMatrix><feOffset dy="0.179173"></feOffset><feGaussianBlur stdDeviation="0.179173"></feGaussianBlur><feColorMatrix type="matrix" values="0 0 0 0 0 0 0 0 0 0 0 0 0 0 0 0 0 0 0.24 0"></feColorMatrix><feBlend mode="normal" in2="BackgroundImageFix" result="effect1_dropShadow_1152_115006"></feBlend><feColorMatrix in="SourceAlpha" type="matrix" values="0 0 0 0 0 0 0 0 0 0 0 0 0 0 0 0 0 0 127 0" result="hardAlpha"></feColorMatrix><feOffset dy="0.943015"></feOffset><feGaussianBlur stdDeviation="1.88603"></feGaussianBlur><feColorMatrix type="matrix" values="0 0 0 0 0 0 0 0 0 0 0 0 0 0 0 0 0 0 0.22 0"></feColorMatrix><feBlend mode="normal" in2="effect1_dropShadow_1152_115006" result="effect2_dropShadow_1152_115006"></feBlend><feBlend mode="normal" in="SourceGraphic" in2="effect2_dropShadow_1152_115006" result="shape"></feBlend></filter><filter id="filter3_dd_1152_115006" x="10.349" y="17.8409" width="51.216" height="46.2082" filterUnits="userSpaceOnUse" color-interpolation-filters="sRGB"><feFlood flood-opacity="0" result="BackgroundImageFix"></feFlood><feColorMatrix in="SourceAlpha" type="matrix" values="0 0 0 0 0 0 0 0 0 0 0 0 0 0 0 0 0 0 127 0" result="hardAlpha"></feColorMatrix><feOffset dy="0.179173"></feOffset><feGaussianBlur stdDeviation="0.179173"></feGaussianBlur><feColorMatrix type="matrix" values="0 0 0 0 0 0 0 0 0 0 0 0 0 0 0 0 0 0 0.24 0"></feColorMatrix><feBlend mode="normal" in2="BackgroundImageFix" result="effect1_dropShadow_1152_115006"></feBlend><feColorMatrix in="SourceAlpha" type="matrix" values="0 0 0 0 0 0 0 0 0 0 0 0 0 0 0 0 0 0 127 0" result="hardAlpha"></feColorMatrix><feOffset dy="0.943015"></feOffset><feGaussianBlur stdDeviation="1.88603"></feGaussianBlur><feColorMatrix type="matrix" values="0 0 0 0 0 0 0 0 0 0 0 0 0 0 0 0 0 0 0.22 0"></feColorMatrix><feBlend mode="normal" in2="effect1_dropShadow_1152_115006" result="effect2_dropShadow_1152_115006"></feBlend><feBlend mode="normal" in="SourceGraphic" in2="effect2_dropShadow_1152_115006" result="shape"></feBlend></filter><filter id="filter4_dd_1152_115006" x="35.1291" y="3.06468" width="34.816" height="67.2749" filterUnits="userSpaceOnUse" color-interpolation-filters="sRGB"><feFlood flood-opacity="0" result="BackgroundImageFix"></feFlood><feColorMatrix in="SourceAlpha" type="matrix" values="0 0 0 0 0 0 0 0 0 0 0 0 0 0 0 0 0 0 127 0" result="hardAlpha"></feColorMatrix><feOffset></feOffset><feGaussianBlur stdDeviation="0.0943016"></feGaussianBlur><feColorMatrix type="matrix" values="0 0 0 0 0 0 0 0 0 0 0 0 0 0 0 0 0 0 0.24 0"></feColorMatrix><feBlend mode="normal" in2="BackgroundImageFix" result="effect1_dropShadow_1152_115006"></feBlend><feColorMatrix in="SourceAlpha" type="matrix" values="0 0 0 0 0 0 0 0 0 0 0 0 0 0 0 0 0 0 127 0" result="hardAlpha"></feColorMatrix><feOffset></feOffset><feGaussianBlur stdDeviation="5.65809"></feGaussianBlur><feColorMatrix type="matrix" values="0 0 0 0 0 0 0 0 0 0 0 0 0 0 0 0 0 0 0.3 0"></feColorMatrix><feBlend mode="normal" in2="effect1_dropShadow_1152_115006" result="effect2_dropShadow_1152_115006"></feBlend><feBlend mode="normal" in="SourceGraphic" in2="effect2_dropShadow_1152_115006" result="shape"></feBlend></filter><linearGradient id="paint0_linear_1152_115006" x1="35.9995" y1="14.0684" x2="35.9995" y2="59.3332" gradientUnits="userSpaceOnUse"><stop stop-color="white"></stop><stop offset="1" stop-color="white" stop-opacity="0"></stop></linearGradient><linearGradient id="paint1_linear_1152_115006" x1="35.9995" y1="14.0684" x2="35.9995" y2="59.3332" gradientUnits="userSpaceOnUse"><stop stop-color="white"></stop><stop offset="1" stop-color="white" stop-opacity="0"></stop></linearGradient><linearGradient id="paint2_linear_1152_115006" x1="35.9995" y1="14.0684" x2="35.9995" y2="59.3332" gradientUnits="userSpaceOnUse"><stop stop-color="white"></stop><stop offset="1" stop-color="white" stop-opacity="0"></stop></linearGradient><linearGradient id="paint3_linear_1152_115006" x1="35.9995" y1="14.0684" x2="35.9995" y2="59.3332" gradientUnits="userSpaceOnUse"><stop stop-color="white"></stop><stop offset="1" stop-color="white" stop-opacity="0"></stop></linearGradient><linearGradient id="paint4_linear_1152_115006" x1="50.1442" y1="14.0684" x2="16.5333" y2="47.8976" gradientUnits="userSpaceOnUse"><stop stop-color="#7252AA"></stop><stop offset="1" stop-color="#7252AA"></stop></linearGradient><linearGradient id="paint5_linear_1152_115006" x1="17.6102" y1="22.3202" x2="49.2012" y2="57.6833" gradientUnits="userSpaceOnUse"><stop stop-color="#AE7FE2"></stop><stop offset="1" stop-color="#9A70D4"></stop></linearGradient><linearGradient id="paint6_linear_1152_115006" x1="52.4031" y1="13.4706" x2="52.4031" y2="58.9853" gradientUnits="userSpaceOnUse"><stop stop-color="#D59DFF"></stop><stop offset="1" stop-color="#C18EF1"></stop></linearGradient><clipPath id="clip0_1152_115006"><rect width="72" height="72" fill="white" transform="translate(0 0.701172)"></rect></clipPath><clipPath id="clip1_1152_115006"><rect width="45.2647" height="45.2647" fill="white" transform="translate(13.3672 14.0684)"></rect></clipPath></defs></svg> 