<?xml version="1.0" encoding="UTF-8"?> <svg xmlns="http://www.w3.org/2000/svg" width="72" height="73" viewBox="0 0 72 73" fill="none"><mask id="mask0_1152_115027" style="mask-type:alpha" maskUnits="userSpaceOnUse" x="3" y="3" width="66" height="67"><path fill-rule="evenodd" clip-rule="evenodd" d="M49.7662 69.1663C50.803 69.5702 51.9853 69.5443 53.0317 69.0408L66.5847 62.5194C68.0089 61.8341 68.9145 60.3928 68.9145 58.8115V14.5919C68.9145 13.0107 68.0089 11.5694 66.5847 10.8841L53.0317 4.36246C51.6584 3.70161 50.0511 3.86348 48.8457 4.73978C48.6735 4.86496 48.5095 5.00473 48.3556 5.15876L22.41 28.8294L11.1086 20.2508C10.0565 19.4522 8.58501 19.5176 7.60792 20.4064L3.9832 23.7036C2.78803 24.7908 2.78666 26.6711 3.98024 27.76L13.7812 36.7016L3.98024 45.6432C2.78666 46.7322 2.78803 48.6124 3.9832 49.6996L7.60792 52.9968C8.58501 53.8856 10.0565 53.9511 11.1086 53.1525L22.41 44.5738L48.3556 68.2445C48.766 68.6552 49.2479 68.9644 49.7662 69.1663ZM52.4674 21.7578L32.7806 36.7016L52.4674 51.6455V21.7578Z" fill="white"></path></mask><g mask="url(#mask0_1152_115027)"><g filter="url(#filter0_d_1152_115027)"><path d="M66.5821 10.8957L53.0185 4.36504C51.4485 3.60913 49.5723 3.92799 48.3401 5.16011L3.93782 45.6446C2.74351 46.7335 2.74488 48.6138 3.94078 49.701L7.5677 52.9982C8.54539 53.887 10.0178 53.9524 11.0705 53.1538L64.5411 12.5899C66.335 11.229 68.9116 12.5085 68.9116 14.7601V14.6027C68.9116 13.0221 68.0062 11.5813 66.5821 10.8957Z" fill="#0065A9"></path></g><g filter="url(#filter1_d_1152_115027)"><path d="M66.5821 62.5092L53.0185 69.0398C51.4485 69.7957 49.5723 69.4769 48.3401 68.2447L3.93782 27.7603C2.74351 26.6714 2.74488 24.7911 3.94078 23.7039L7.5677 20.4067C8.54539 19.5179 10.0178 19.4524 11.0705 20.251L64.5411 60.815C66.335 62.1758 68.9116 60.8964 68.9116 58.6448V58.8022C68.9116 60.3827 68.0062 61.8235 66.5821 62.5092Z" fill="#007ACC"></path></g><g filter="url(#filter2_d_1152_115027)"><path d="M53.0227 69.0408C51.4522 69.796 49.576 69.4767 48.3438 68.2445C49.862 69.7627 52.458 68.6874 52.458 66.5403V6.86296C52.458 4.71579 49.862 3.64049 48.3438 5.15876C49.576 3.92652 51.4522 3.60721 53.0227 4.36246L66.584 10.8841C68.009 11.5694 68.9152 13.0107 68.9152 14.5919V58.8115C68.9152 60.3928 68.009 61.8341 66.584 62.5194L53.0227 69.0408Z" fill="#1F9CF0"></path></g><g style="mix-blend-mode:overlay" opacity="0.25"><path fill-rule="evenodd" clip-rule="evenodd" d="M49.7232 69.1663C50.76 69.5702 51.9423 69.5443 52.9888 69.0408L66.5417 62.5194C67.9659 61.8341 68.8715 60.3928 68.8715 58.8115V14.5919C68.8715 13.0107 67.9659 11.5694 66.5418 10.8841L52.9887 4.36246C51.6154 3.70161 50.0081 3.86348 48.8027 4.73978C48.6305 4.86496 48.4665 5.00473 48.3126 5.15876L22.367 28.8294L11.0656 20.2508C10.0136 19.4522 8.54205 19.5176 7.56495 20.4064L3.94023 23.7036C2.74506 24.7908 2.74369 26.6711 3.93727 27.76L13.7382 36.7016L3.93727 45.6432C2.74369 46.7322 2.74506 48.6124 3.94023 49.6996L7.56495 52.9968C8.54205 53.8856 10.0136 53.9511 11.0656 53.1525L22.367 44.5738L48.3126 68.2445C48.723 68.6552 49.205 68.9644 49.7232 69.1663ZM52.4244 21.7578L32.7377 36.7016L52.4244 51.6455V21.7578Z" fill="url(#paint0_linear_1152_115027)"></path></g></g><defs><filter id="filter0_d_1152_115027" x="0.300112" y="3.95898" width="71.3529" height="55.2377" filterUnits="userSpaceOnUse" color-interpolation-filters="sRGB"><feFlood flood-opacity="0" result="BackgroundImageFix"></feFlood><feColorMatrix in="SourceAlpha" type="matrix" values="0 0 0 0 0 0 0 0 0 0 0 0 0 0 0 0 0 0 127 0" result="hardAlpha"></feColorMatrix><feOffset dy="2.74286"></feOffset><feGaussianBlur stdDeviation="1.37143"></feGaussianBlur><feColorMatrix type="matrix" values="0 0 0 0 0 0 0 0 0 0 0 0 0 0 0 0 0 0 0.25 0"></feColorMatrix><feBlend mode="normal" in2="BackgroundImageFix" result="effect1_dropShadow_1152_115027"></feBlend><feBlend mode="normal" in="SourceGraphic" in2="effect1_dropShadow_1152_115027" result="shape"></feBlend></filter><filter id="filter1_d_1152_115027" x="-2.44275" y="14.2076" width="76.8386" height="60.7234" filterUnits="userSpaceOnUse" color-interpolation-filters="sRGB"><feFlood flood-opacity="0" result="BackgroundImageFix"></feFlood><feColorMatrix in="SourceAlpha" type="matrix" values="0 0 0 0 0 0 0 0 0 0 0 0 0 0 0 0 0 0 127 0" result="hardAlpha"></feColorMatrix><feOffset></feOffset><feGaussianBlur stdDeviation="2.74286"></feGaussianBlur><feColorMatrix type="matrix" values="0 0 0 0 0 0 0 0 0 0 0 0 0 0 0 0 0 0 0.25 0"></feColorMatrix><feBlend mode="overlay" in2="BackgroundImageFix" result="effect1_dropShadow_1152_115027"></feBlend><feBlend mode="normal" in="SourceGraphic" in2="effect1_dropShadow_1152_115027" result="shape"></feBlend></filter><filter id="filter2_d_1152_115027" x="42.858" y="-1.52868" width="31.5417" height="76.4597" filterUnits="userSpaceOnUse" color-interpolation-filters="sRGB"><feFlood flood-opacity="0" result="BackgroundImageFix"></feFlood><feColorMatrix in="SourceAlpha" type="matrix" values="0 0 0 0 0 0 0 0 0 0 0 0 0 0 0 0 0 0 127 0" result="hardAlpha"></feColorMatrix><feOffset></feOffset><feGaussianBlur stdDeviation="2.74286"></feGaussianBlur><feColorMatrix type="matrix" values="0 0 0 0 0 0 0 0 0 0 0 0 0 0 0 0 0 0 0.25 0"></feColorMatrix><feBlend mode="overlay" in2="BackgroundImageFix" result="effect1_dropShadow_1152_115027"></feBlend><feBlend mode="normal" in="SourceGraphic" in2="effect1_dropShadow_1152_115027" result="shape"></feBlend></filter><linearGradient id="paint0_linear_1152_115027" x1="35.9573" y1="3.95703" x2="35.9573" y2="69.4462" gradientUnits="userSpaceOnUse"><stop stop-color="white"></stop><stop offset="1" stop-color="white" stop-opacity="0"></stop></linearGradient></defs></svg> 