<svg width="1757" height="847" viewBox="0 0 1757 847" fill="none" xmlns="http://www.w3.org/2000/svg">
<g clip-path="url(#clip0_6807_88390)">
<mask id="mask0_6807_88390" style="mask-type:alpha" maskUnits="userSpaceOnUse" x="-39" y="273" width="1601" height="772">
<path d="M-38.4419 273H1561.56V1045H-38.4419V273Z" fill="url(#paint0_linear_6807_88390)"/>
</mask>
<g mask="url(#mask0_6807_88390)">
<path d="M651.613 761.322H494.988C480.969 761.322 469.547 749.906 469.547 735.894V484.381C469.547 471.58 479.066 460.856 491.526 459.299L648.152 430.238C663.382 428.162 677.054 439.925 677.054 455.32V735.721C677.054 749.733 665.805 761.322 651.613 761.322Z" fill="url(#paint1_linear_6807_88390)"/>
<rect x="88.9448" y="462.389" width="297.315" height="206.196" rx="31.6" fill="url(#paint2_linear_6807_88390)" fill-opacity="0.8"/>
<path d="M450.701 778.222C415.312 741.683 416.252 683.19 452.81 647.818C489.367 612.447 547.89 613.387 583.279 649.926C618.669 686.465 617.728 744.958 581.171 780.33C544.613 815.702 486.091 814.762 450.701 778.222Z" fill="url(#paint3_linear_6807_88390)" fill-opacity="0.4"/>
<path d="M289.58 744.28L236.448 745.664C222.43 745.664 211.007 734.247 211.007 720.236L209.623 597.074C209.623 585.657 214.988 574.932 228.314 572.511L288.714 565.591C305.848 564.381 315.02 573.894 315.02 590.674V718.852C315.02 732.863 303.598 744.28 289.58 744.28Z" fill="url(#paint4_linear_6807_88390)"/>
<path d="M486.442 847H363.076C347.389 847 334.607 834.225 334.607 818.546V623.428C334.607 609.685 344.484 597.877 358.041 595.361L481.6 581.424C499.417 579.101 514.911 591.683 514.911 609.491V818.546C514.911 834.031 502.322 847 486.442 847Z" fill="url(#paint5_linear_6807_88390)" fill-opacity="0.8"/>
</g>
</g>
<mask id="mask1_6807_88390" style="mask-type:alpha" maskUnits="userSpaceOnUse" x="-139" y="0" width="1901" height="700">
<rect width="1900" height="700" transform="matrix(-1 0 0 1 1761.86 0)" fill="url(#paint6_linear_6807_88390)"/>
</mask>
<g mask="url(#mask1_6807_88390)">
<path d="M1649.4 535.239L1754.88 290.775C1756.08 288.116 1756.74 285.246 1756.82 282.329C1756.91 279.413 1756.41 276.508 1755.37 273.784C1754.32 271.06 1752.75 268.57 1750.73 266.459C1748.72 264.347 1746.31 262.656 1743.64 261.482C1700.94 240.217 1663.78 209.287 1635.13 171.149C1606.47 133.012 1587.1 88.7182 1578.56 41.7859C1577.52 36.103 1574.42 31.0054 1569.84 27.4749C1565.27 23.9445 1559.55 22.2308 1553.79 22.6641L1287.92 46.8714C1284.83 47.1542 1281.82 48.0564 1279.09 49.5244C1276.35 50.9925 1273.94 52.9962 1271.99 55.4164C1270.05 57.8366 1268.61 60.6237 1267.76 63.6116C1266.92 66.5994 1266.68 69.7269 1267.07 72.8078C1281.15 172.193 1319.17 266.669 1377.85 348.108C1436.53 429.547 1514.12 495.511 1603.94 540.325C1609.02 542.562 1614.11 545.41 1619.19 547.648C1624.85 549.982 1631.19 549.987 1636.85 547.663C1642.51 545.339 1647.02 540.873 1649.4 535.239Z" fill="url(#paint7_linear_6807_88390)" fill-opacity="0.6"/>
<path d="M1089.86 -397.323C1109.91 -383.294 1094.8 -324.333 1075.17 -309.898C1063.6 -301.376 1053.51 -291.022 1045.28 -279.247C1025.19 -250.517 1017.33 -214.985 1023.43 -180.457C1029.53 -145.929 1049.09 -115.23 1077.81 -95.1055C1092.03 -85.139 1108.09 -78.0738 1125.04 -74.3138C1142 -70.5538 1159.54 -70.1727 1176.64 -73.1924C1193.74 -76.2121 1210.08 -82.5734 1224.72 -91.9124C1239.36 -101.251 1252.02 -113.385 1261.97 -127.62C1270.44 -139.69 1276.82 -153.097 1280.84 -167.282C1287.49 -190.718 1336.83 -224.641 1356.79 -210.676L1481.24 -123.595C1484.98 -121.036 1487.81 -117.357 1489.33 -113.087C1490.84 -108.817 1490.96 -104.177 1489.67 -99.8345C1478.88 -64.8751 1462.69 -31.8203 1441.68 -1.86926C1415.21 35.9483 1381.56 68.1793 1342.63 92.9823C1303.7 117.785 1260.26 134.674 1214.8 142.684C1169.33 150.693 1122.73 149.667 1077.66 139.663C1032.58 129.659 989.92 110.873 952.104 84.3799C914.292 57.925 882.062 24.2812 857.256 -14.6291C832.45 -53.5393 815.553 -96.953 807.532 -142.39C799.511 -187.826 800.522 -234.395 810.508 -279.435C820.494 -324.475 839.26 -367.102 865.731 -404.882C886.693 -434.859 912.197 -461.385 941.329 -483.508C944.969 -486.213 949.376 -487.692 953.912 -487.732C958.449 -487.772 962.882 -486.371 966.572 -483.73L1089.86 -397.323Z" fill="url(#paint8_linear_6807_88390)" fill-opacity="0.4"/>
</g>
<defs>
<linearGradient id="paint0_linear_6807_88390" x1="771.844" y1="647" x2="771.113" y2="1013.02" gradientUnits="userSpaceOnUse">
<stop stop-color="white"/>
<stop offset="0.640625" stop-color="white" stop-opacity="0"/>
</linearGradient>
<linearGradient id="paint1_linear_6807_88390" x1="496.916" y1="761.322" x2="681.177" y2="554.651" gradientUnits="userSpaceOnUse">
<stop stop-color="#391F6E" stop-opacity="0.8"/>
<stop offset="1" stop-color="#AB8AD3"/>
</linearGradient>
<linearGradient id="paint2_linear_6807_88390" x1="-63.3947" y1="462.389" x2="238.08" y2="631.341" gradientUnits="userSpaceOnUse">
<stop stop-color="#A48BEF" stop-opacity="0.8"/>
<stop offset="1" stop-color="#CAEAF7" stop-opacity="0.4"/>
</linearGradient>
<linearGradient id="paint3_linear_6807_88390" x1="643.097" y1="695.947" x2="391.43" y2="723.744" gradientUnits="userSpaceOnUse">
<stop stop-color="#AA87E7"/>
<stop offset="1" stop-color="#DEF2FF"/>
</linearGradient>
<linearGradient id="paint4_linear_6807_88390" x1="224.685" y1="756.896" x2="322.244" y2="614.618" gradientUnits="userSpaceOnUse">
<stop stop-color="#391F6E" stop-opacity="0.8"/>
<stop offset="1" stop-color="#AB8AD3" stop-opacity="0.8"/>
</linearGradient>
<linearGradient id="paint5_linear_6807_88390" x1="439.979" y1="669.513" x2="238.206" y2="937.647" gradientUnits="userSpaceOnUse">
<stop stop-color="#AF94DE"/>
<stop offset="1" stop-color="#66B7ED"/>
</linearGradient>
<linearGradient id="paint6_linear_6807_88390" x1="962.214" y1="904.5" x2="977.25" y2="39.2613" gradientUnits="userSpaceOnUse">
<stop offset="0.40916" stop-color="white"/>
<stop offset="1" stop-color="white" stop-opacity="0"/>
</linearGradient>
<linearGradient id="paint7_linear_6807_88390" x1="1781.41" y1="356.943" x2="1318.36" y2="251.499" gradientUnits="userSpaceOnUse">
<stop stop-color="#806DCE" stop-opacity="0.8"/>
<stop offset="1" stop-color="#BBA0F3"/>
</linearGradient>
<linearGradient id="paint8_linear_6807_88390" x1="960.721" y1="15.2728" x2="1139.07" y2="-418.132" gradientUnits="userSpaceOnUse">
<stop stop-color="#B292E9"/>
<stop offset="1" stop-color="#CFA1EF"/>
</linearGradient>
<clipPath id="clip0_6807_88390">
<rect width="598" height="417" fill="white" transform="translate(84 430)"/>
</clipPath>
</defs>
</svg>
